# xmcd CD database file
# Copyright (C) 1997 Ti Kan
#
# Track frame offsets:
#  150
#  16730
#  37882
#  55320
#  76940
#  94465
#  112882
#  134580
#  153000
#  170672
#  195627
#  212872
#  233977
#  247780
#
# Disc length: 3632 seconds
#
# Revision: 1
# Processed by: cddbd v1.4b41PL1 Copyright (c) Steve Scherf et al.
# Submitted via: CDWizzard Release:4.20
#
DISCID=af0e2e0e
DTITLE=Backstreet Boys - Backstreet Boys
DYEAR=1900
DGENRE=
TTITLE0=We've got it goin' on
TTITLE1=Anywhere for you
TTITLE2=Get down (You're the one for me)
TTITLE3=I'll never break your heart
TTITLE4=Quit playin' games (with my heart)
TTITLE5=Boys will be boys
TTITLE6=Just to be close to you
TTITLE7=I wanna be with you
TTITLE8=Everytime I close my eyes
TTITLE9=Darlin'
TTITLE10=Let's have a party
TTITLE11=Roll with it
TTITLE12=Nobody but you
TTITLE13=Lay down beside me
EXTD=
EXTT0=
EXTT1=
EXTT2=
EXTT3=
EXTT4=
EXTT5=
EXTT6=
EXTT7=
EXTT8=
EXTT9=
EXTT10=
EXTT11=
EXTT12=
EXTT13=
PLAYORDER=
